<svg xmlns="http://www.w3.org/2000/svg" version="1.1">
<symbol id="icon-cow" viewBox="-5.0 -10.0 110.0 135.0">
 <g>
  <path d="m8.25 41.02c0.58984 0 1.0703-0.48047 1.0703-1.0781v-13.723l13.602-17.469h5.9688l-15.832 31.609c-0.26953 0.53125-0.050782 1.1797 0.48047 1.4492 0.14844 0.078125 0.32031 0.12109 0.48047 0.12109 0.39062 0 0.76953-0.21875 0.96094-0.58984l16.328-32.59h3.0781l-5.0195 16.609c-0.17188 0.57031 0.14844 1.1719 0.71875 1.3398 0.10156 0.03125 0.21094 0.050781 0.30859 0.050781 0.46094 0 0.89062-0.30078 1.0312-0.76953l5.2109-17.23h3.2188l-0.85547 7.25c-0.070312 0.58984 0.35156 1.1211 0.94141 1.1914 0.039063 0.011719 0.089844 0.011719 0.12891 0.011719 0.53906 0 1-0.39844 1.0703-0.94922l0.89062-7.5h9.5195c0.58984 0 1.0781-0.48047 1.0781-1.0781 0-0.58984-0.48047-1.0781-1.0781-1.0781l-43.301-0.007812c-0.60156 0-1.0781 0.48047-1.0781 1.0781v32.27c0.007813 0.60156 0.48828 1.082 1.0781 1.082zm1.0781-32.27h10.871l-10.871 13.961z"/>
  <path d="m38.289 21.93-0.71875 6.0508c-0.070312 0.58984 0.35156 1.1211 0.94141 1.1914 0.039062 0.011719 0.089843 0.011719 0.12891 0.011719 0.53906 0 1-0.39844 1.0703-0.94922l0.71875-6.0508c0.070312-0.58984-0.35156-1.1211-0.94141-1.1914-0.58984-0.070313-1.1289 0.34766-1.1992 0.9375z"/>
  <path d="m29.211 29.359c-0.55859-0.17969-1.1719 0.12891-1.3516 0.69141l-3.3711 10.461c-0.17969 0.57031 0.12891 1.1719 0.69922 1.3594 0.10938 0.039062 0.21875 0.050781 0.32812 0.050781 0.44922 0 0.87891-0.28906 1.0195-0.75l3.3711-10.461c0.18359-0.5625-0.125-1.1719-0.69531-1.3516z"/>
  <path d="m80.578 60.852c-0.37109-0.46875-1.0391-0.55859-1.5117-0.19141-0.46875 0.37109-0.55078 1.0508-0.19141 1.5117l12.93 16.59v13.559c0 0.58984 0.48047 1.0781 1.0703 1.0781s1.0781-0.48047 1.0781-1.0781l0.007813-13.93c0-0.23828-0.078126-0.46875-0.23047-0.66016z"/>
  <path d="m75.961 66.852c-0.26953-0.53125-0.91016-0.75-1.4414-0.48047-0.53125 0.26953-0.75 0.91016-0.48047 1.4492l12.52 24.988c0.19141 0.37109 0.57031 0.58984 0.96094 0.58984 0.16016 0 0.32812-0.039063 0.48047-0.12109 0.53125-0.26953 0.75-0.91016 0.48047-1.4492z"/>
  <path d="m74.75 82.27c-0.17969-0.57031-0.78906-0.87891-1.3594-0.69141-0.57031 0.17969-0.87891 0.78906-0.69141 1.3594l3.1289 9.7188c0.14844 0.46094 0.57031 0.75 1.0195 0.75 0.10938 0 0.21875-0.019531 0.32812-0.050781 0.55859-0.17969 0.87891-0.78906 0.69922-1.3594z"/>
  <path d="m73.34 77.922-1.1797-3.9219c-0.17188-0.57031-0.76953-0.89844-1.3398-0.71875-0.57031 0.17188-0.89062 0.76953-0.71875 1.3398l1.1914 3.9219c0.14062 0.46875 0.57031 0.76953 1.0312 0.76953 0.10156 0 0.21094-0.019531 0.30859-0.050781 0.55859-0.17188 0.88672-0.77344 0.70703-1.3398z"/>
  <path d="m93.441 31.898c-0.51953-0.28125-1.1719-0.078126-1.4609 0.42969l-0.25 0.46094c-1.2188 2.2383-2.4883 4.5508-3.5 9.3086l-2.7305 0.003906c0.66016-1.9219 2.6406-8.3281 2.6406-8.5 0-0.39844-0.17188-0.76953-0.76953-1.9805-0.64844-1.3203-1.75-3.5391-1.8086-4.6992-0.03125-0.57812-0.5-1.0195-1.0781-1.0195h-0.03125c-0.57812 0.019531-1.0508 0.48828-1.0508 1.0781 0 0.51953-0.71094 1.5898-3.3594 1.9414-1.8008 0.23047-4.1406 0.089844-6.9609-0.37109-0.30859-0.050781-0.62891 0.039063-0.87109 0.23828-0.23828 0.19922-0.37891 0.5-0.37891 0.82031l-0.003906 12.492h-2.3398c-0.14062-1.7188-0.89844-8.4414-0.91016-8.5117-0.21094-1.3008-0.42969-2.6211-0.67188-3.4609-0.03125-0.089844-0.48828-0.96875-0.53125-1.0195-0.94141-1.3711-2.0703-0.94922-2.6719-0.73828-0.55859 0.19922-1.25 0.46094-2.4805 0.17969-0.19141-0.070312-0.39062-0.12891-0.64062-0.19141-0.42188-0.10938-0.85156 0.058594-1.1094 0.39844-3.4805 4.6016-9.5508 12.16-11.398 13.359 0.23047-1.3516 0.070312-2.5 0.058593-2.5703-0.10937-0.57812-0.64844-0.96094-1.25-0.87109-0.57812 0.10156-0.98047 0.66016-0.87891 1.2383 0 0.019532 0.16016 1.1484-0.16016 2.2891-0.39062-0.21094-0.78125-0.48047-1.1797-0.82812-0.14844-0.12891-0.28906-0.25-0.42969-0.35156 0.050781-0.21875 0.12109-0.48828 0.19141-0.73828 0.28906-1.1016 0.69141-2.6094 0.55859-4.25-0.070313-0.85156-0.16016-1.3789-0.23047-1.8281-0.16016-0.96094-0.23828-1.4414 0.21875-4.4219 0.35156-2.25 0.011719-3.9609-0.48047-5.1719 1.4297 0.39062 3.0508 1.1719 3.1289 2.6914 0.03125 0.5 0.39844 0.91016 0.89062 1 0.48828 0.089843 0.98047-0.17188 1.1719-0.64063 0 0 0.60938-1.4219 1.3711-3.3906 1.3789-1.4102 2-1.5312 3.0312-1.3516 0.26172 0.039063 0.53125 0.10938 0.82031 0.17969 1.4805 0.37109 3.7109 0.94922 5.8086-1.5508 2.4492-2.9102 0.51172-6.7305-0.71094-7.8398-0.44922-0.41016-1.25-0.78125-1.9883-1.0703 1.5703-1.4883 3.4492-2.3594 7.8984-2.3594 0.21875 0 8.1719 0.26953 10.602 0.30078-0.62109 0.78906-1.2109 1.7383-1.4492 2.9688-0.39844 2.0312 0.16016 4.1289 1.6914 6.2383 0.78906 1.0898 1.8516 2.3203 3.1289 2.3203 0.070312 0 0.14062-0.011719 0.21094-0.011719 1.4492-0.14844 2.1211-1.6797 2.8281-3.3008 0.67969-1.5312 1.4414-3.2695 2.6797-3.3984 1.8086-0.19141 2.5508-1.0586 2.8594-1.7383 0.5-1.1406 0.089844-2.4492-0.41016-3.4805 0.19922-0.011719 0.32812-0.03125 0.55859-0.039063 1.1211-0.14844 2.1719-0.26953 3.1016-0.10156 0.57812 0.12891 1.1484-0.26953 1.2617-0.85937 0.10938-0.57813-0.26953-1.1484-0.85937-1.2617-1.2617-0.25-2.5391-0.078125-3.75 0.078125-0.51953 0-1.1602 0.058594-1.8594 0.16016l-0.30859 0.042969c-2.5703 0.17969-4.8008 0.26172-7.0312 0.26172-3 0-12.988-0.32031-13.238-0.32031-6.4102 0-8.5391 1.8594-10.641 4.2812-0.011718 0-0.011718 0.011719-0.019531 0.011719-0.39844 0.44922-0.73828 0.89844-1.0508 1.3203-1.9297 2.3594-4 6.9414-5.0703 9.5-0.17188 0.44922-0.33984 0.87109-0.48828 1.2617-2.0312-2.2109-6.0898-2.4219-6.3203-2.4297-0.44922 0-0.85938 0.25-1.0391 0.67187-0.17188 0.42188-0.058593 0.91016 0.28125 1.2109 0.078125 0.070312 1.8516 1.7188 1.2617 5.4805-0.5 3.1992-0.42188 3.9219-0.21875 5.1211 0.070312 0.39844 0.14844 0.89063 0.21094 1.6406 0.10156 1.2695-0.23047 2.5195-0.5 3.5312-0.28906 1.1016-0.69141 2.6211 0.53125 2.9609 0.10937 0.058594 0.23047 0.17969 0.39062 0.32031 0.55078 0.48047 1.4688 1.2305 2.6719 1.5117 0.17187 0.089844 0.80859 0.14062 0.92187 0.14062 0.64063 0 1.3398-0.16016 2.1016-0.55078 2.1797-1.2305 8.1289-8.75 10.879-12.309l0.28906 11.391c0.011718 0.57812 0.48828 1.0508 1.0703 1.0508h2.9805c0.44141 0 0.82812-0.26953 1-0.67187 0.039063-0.10156 0.51172-1.2812 1.0312-2.8906 0.12891 1.4805 0.19922 2.5312 0.19922 2.5508 0.039062 0.57031 0.51172 1 1.0703 1h4.4102c0.58984 0 1.0703-0.48047 1.0703-1.0781l-0.011719-12.297c2.0781 0.28906 3.8086 0.32812 5.3594 0.23047 0.10938 0.32813 0.26172 0.67188 0.44141 1.0312l-1.7891 1.3203c-0.48047 0.35156-0.57812 1.0312-0.23047 1.5117 0.21094 0.28125 0.53906 0.44141 0.87109 0.44141 0.21875 0 0.44922-0.070312 0.64062-0.21094l1.7656-1.2969c0.35156 0.37891 0.78125 0.71875 1.25 1.0312l-0.60938 2.8203c-0.12891 0.57812 0.23828 1.1602 0.82812 1.2812 0.078125 0.019531 0.14844 0.03125 0.23047 0.03125 0.5 0 0.94141-0.35156 1.0508-0.85156l0.53125-2.4219c0.32031 0.070313 0.67969 0.089844 1.0312 0.10938-0.89844 2.7891-2.3008 6.8711-2.3203 6.9219-0.10938 0.32813-0.058594 0.69141 0.14062 0.98047 0.19922 0.28125 0.53125 0.44922 0.87891 0.44922h5.1094c0.51953 0 0.96094-0.37109 1.0586-0.87109 0.98047-5.0195 2.1797-7.2305 3.4609-9.5508l0.26172-0.46875c0.24609-0.53125 0.058594-1.1797-0.46094-1.4609zm-15.262-17.887c0.35937-1.8594 1.8086-3.0391 2.3008-3.3984 2-0.011719 4.0312-0.089843 6.2383-0.23047 0.53125 0.83984 1 1.9414 0.78125 2.4492-0.14062 0.32812-0.82031 0.44141-1.1094 0.46094-2.4688 0.26172-3.5508 2.7109-4.4219 4.6797-0.30859 0.69922-0.82031 1.8789-1.0586 2.0195-0.011718 0-0.44141-0.078126-1.4102-1.4297-1.1484-1.6133-1.6016-3.1406-1.3203-4.5508zm-21.258 1.0664c0.17188-0.23047 0.37109-0.46094 0.55078-0.69922 0.89844 0.30078 1.8281 0.67969 2.1094 0.92969 0.30859 0.28125 2.1719 2.8906 0.51172 4.8516-1.2305 1.4609-2.2891 1.1992-3.6406 0.85156-0.35938-0.089844-0.71094-0.17969-1.0312-0.23047-0.67188-0.10156-1.25-0.070312-1.8086 0.050781 0.96484-2.043 2.168-4.3516 3.3086-5.7539zm7.5273 27.023h-1.1914l-0.28125-11.391c1.1094 0.03125 1.9688-0.12891 2.4688-0.30859 0.058594-0.019532 0.10156-0.039063 0.14844-0.058594 0.019531 0.039062 0.25 0.48828 0.28906 0.55078 0.19141 0.75 0.39063 1.9297 0.55859 2.9883-0.089844 2.8281-1.4219 6.6758-1.9922 8.2188zm17.082-11.34c1.1016-0.28125 1.9883-0.64062 2.5586-1.0781 0.39844 1.0117 0.91016 2.0391 1.3398 2.9102 0.23828 0.48828 0.44922 0.89062 0.53125 1.1016-0.011719 0.019532-0.011719 0.03125-0.011719 0.050782-2.6602 0.082031-3.9102-1.7656-4.418-2.9844z"/>
  <path d="m47.719 31.711c-0.21875 0.21875-0.32031 0.48047-0.32031 0.75 0 0.32812 0.10937 0.58984 0.32031 0.76172 0.21875 0.21875 0.48828 0.32031 0.75 0.32031 0.32031 0 0.58984-0.10938 0.75-0.32031 0.21875-0.16016 0.32812-0.42969 0.32812-0.76172 0-0.26953-0.10938-0.53906-0.32812-0.75-0.36719-0.38281-1.1172-0.38281-1.5 0z"/>
  <path d="m47.02 81.871h-20.469c1.2695-0.89844 2.1914-1.4219 2.1992-1.4219 0.51953-0.28125 0.71875-0.94141 0.44141-1.4609-0.28125-0.53125-0.92969-0.71875-1.4609-0.44141-0.089844 0.050781-2.3398 1.2695-5.0312 3.5703l-0.80078 0.67187c-2.6289 2.1797-5.6016 4.6484-7.3086 8.9883-0.21875 0.55078 0.058594 1.1797 0.60938 1.3984 0.12891 0.050781 0.26172 0.070313 0.39062 0.070313 0.42969 0 0.83984-0.26172 1-0.67969 0.89844-2.3008 2.2383-3.9805 3.6914-5.4297 0.69922 0.82812 1.9414 2.1094 3.5703 3.0703l2.2109 2.6484c0.37891 0.46094 1.0586 0.51953 1.5117 0.14062 0.46094-0.37891 0.51953-1.0586 0.14062-1.5117l-0.050782-0.058594h0.039063c0.039063 0 0.089844 0.019531 0.12891 0.019531 0.35938 0 0.71094-0.03125 1.0703-0.089843 0.10156-0.019531 0.19141-0.089844 0.28125-0.10938 0.37109-0.070313 0.73047-0.14062 1.1016-0.28906l0.53125 1.5586c0.14844 0.44922 0.57031 0.73828 1.0195 0.73828 0.10937 0 0.23047-0.019531 0.33984-0.058594 0.55859-0.19141 0.85938-0.80078 0.67969-1.3594l-0.67969-2.0312c0.37891-0.28906 0.76172-0.55859 1.0898-0.89844l1.3203 1.1016c0.19922 0.17188 0.44922 0.25 0.69141 0.25 0.30859 0 0.60938-0.12891 0.82812-0.39062 0.37891-0.46094 0.32031-1.1406-0.14062-1.5117l-1.3594-1.1289c0.76953-1.1602 1.2812-2.2812 1.5195-3.1992h9.8516l0.23828 8.1797c0.019531 0.57812 0.48828 1.0508 1.0703 1.0508h0.03125c0.58984-0.019531 1.0586-0.51953 1.0508-1.1094l-0.26953-9.2305c-0.019531-0.58984-0.49609-1.0469-1.0781-1.0469zm-16.641 6.6602c-0.64062 0.37109-1.25 0.58984-1.8594 0.67969-0.98047 0.17969-2.0508-0.039063-3.2617-0.64844-0.03125-0.019531-0.058593-0.019531-0.089843-0.039062-1.5312-0.83984-2.7109-2.1289-3.3281-2.8594 0.46875-0.41016 0.94922-0.82031 1.4219-1.2109l0.51172-0.42969 10.125-0.003907c-0.48828 1.332-1.6367 3.3906-3.5195 4.5117z"/>
  <path d="m55.09 75.512c0.058594-1.1914-0.35938-2.3203-1.1797-3.1797-0.69141-0.73047-1.5781-1.1719-2.6406-1.3008-0.28906-2.5898-2.5-4.6094-5.1719-4.6094-1.4805 0-2.8906 0.62891-3.8789 1.7305-0.98828 1.1016-1.4609 2.5781-1.3008 4.0586v0.011718c0.26953 2.4102 2.2188 4.3398 4.8008 4.6016 0.58984 0.039062 1.1484 0.37109 1.5195 0.92188 0.80078 1.1719 2.1992 1.8789 3.5391 1.8711 2.2734-0.027344 4.2031-1.8555 4.3125-4.1055zm-4.2891 1.9297c-0.011719 0-0.011719 0 0 0-0.71094 0-1.3711-0.35156-1.7695-0.92969-0.75-1.0898-1.8984-1.7695-3.25-1.8594-1.4102-0.14062-2.5508-1.2695-2.7109-2.6797-0.10156-0.89062 0.17188-1.7305 0.76172-2.3906 0.57812-0.64844 1.4102-1.0117 2.2812-1.0117 1.6797 0 3.0508 1.3711 3.0508 3.0508 0 0.41016 0.17188 0.80859 0.46094 1.0898 0.28125 0.28125 0.64844 0.42969 1.1289 0.42969 0.60938-0.058594 1.1914 0.21875 1.6094 0.67188 0.41016 0.42969 0.62109 0.98828 0.58984 1.5898-0.0625 1.1289-1.0312 2.0391-2.1523 2.0391z"/>
  <path d="m76.211 56.648c0.26953-0.32031 0.32812-0.76953 0.16016-1.1484-0.17969-0.37891-0.55859-0.62891-0.98047-0.62891h-5.1289c2.0586-3.4297 0.64062-6.0508 0.55859-6.1797-0.23047-0.41016-0.69922-0.60938-1.1602-0.51953-0.46094 0.089844-0.80078 0.48047-0.85156 0.94922-0.12109 1.2188-0.87109 1.9688-1.4883 2.3711-0.82812 0.55078-1.6016 0.60937-1.7188 0.60937-0.85156-0.58984-2.2812-0.91016-3.0586-1.0508-0.39062-0.058593-0.78125-0.058593-1.1719 0-0.78125 0.14062-2.2109 0.46094-2.9883 1.0117-0.19141 0.058594-0.96094-0.03125-1.7891-0.57031-0.62109-0.39844-1.3711-1.1484-1.4883-2.3711-0.050781-0.46875-0.39062-0.85156-0.85156-0.94922-0.46094-0.10156-0.92969 0.10938-1.1602 0.51953-0.070312 0.12891-1.5 2.7383 0.55859 6.1797h-5.1289c-0.42188 0-0.80078 0.25-0.98047 0.62891-0.17969 0.37891-0.12109 0.82812 0.16016 1.1484 0.67188 0.78906 1.6406 1.6719 2.6992 2.3984-9.0703-0.62891-14.02-0.42969-18.648-0.10938l-1.9219 0.17188c-1.7305 0.16016-3.3789 0.30078-5.1211 0.42969-1.4297 0.10938-2.6484 0.42969-3.7305 0.96875-0.10938 0.050782-0.19922 0.12891-0.28125 0.21875-0.37891 0.23047-0.58984 0.55859-0.89062 0.85156-0.94922-0.17188-3.2109-0.41016-5.0195 0.85938-1.3281 0.94141-2.0898 2.4297-2.25 4.4609-0.17187 2.1289-0.14062 4.2109-0.10156 6.0391 0.019531 1.3203 0.011719 2.4297-0.050781 3.3789l-0.21875-0.03125h-0.011719c-1.6094-0.26172-3.25 0.12891-4.4883 1.0508-1.3164 0.97266-1.6289 2.1328-1.668 2.9336-0.10156 2.5703 2.4609 4.8906 2.75 5.1484 0.19922 0.17969 0.44922 0.26953 0.71094 0.26953 0.21094 0 0.42187-0.058594 0.60937-0.19141 0.39844-0.28125 0.57031-0.78906 0.39844-1.2617-0.53125-1.4609 0.80859-3.3516 2.2812-3.9414 1.3086-0.53125 1.5703-2.0508 1.6602-2.5508 0.21875-1.25 0.19141-2.9219 0.16016-4.8516-0.03125-1.7891-0.070312-3.8086 0.10156-5.8281 0.10938-1.3594 0.55859-2.3203 1.3398-2.8594 0.73047-0.51953 1.6484-0.62891 2.3984-0.62109-0.76172 1.7891-0.96875 3.9492-1.1211 6.2383-0.10156 1.6016-0.19922 3.2617-0.5 4.9688-1.1211 6.6289-4.5195 8.5703-4.6602 8.6484-0.30078 0.16016-0.51172 0.44922-0.55859 0.78125l-1.2383 7.7812c-0.089843 0.58984 0.30859 1.1406 0.89062 1.2305 0.058594 0.011719 0.10938 0.019531 0.17188 0.019531 0.51953 0 0.98047-0.37891 1.0586-0.91016l1.1602-7.3008c1.1992-0.85156 4.2305-3.5703 5.2891-9.8711 0.30859-1.8281 0.42969-3.6211 0.53125-5.1914 0.17969-2.75 0.39062-4.6602 1.1289-5.9883 0.57812 2.2109 2.2305 4.0391 4.4688 4.6914 1.1602 2.0508 3.3594 3.3594 5.75 3.3594 3.6406 0 6.6016-2.9609 6.6016-6.6016 0-1.75-0.75-3.3281-1.9102-4.5312 4.4492-0.19922 10.012-0.16016 19.57 0.69141 0.23047 1.9688 0.78906 4.5117 2.2383 6.1602-0.44141 1.1406-1.0312 3.3008 0.039062 4.7695 0.62891 0.87109 1.6719 1.3086 3 1.3086 0.17188 0 0.35156-0.03125 0.53125-0.039063v4.8789c0 0.03125-0.26172 2.5898-1.7812 3.3281-0.28125 0.14062-0.58984 0.19922-0.96875 0.19922h-4.3594c-0.53906 0-1 0.39844-1.0703 0.94141l-1.3828 8.8555c-0.10156 0.57812 0.28906 1.1406 0.87891 1.2383 0.058593 0.011719 0.12109 0.019531 0.17969 0.019531 0.51953 0 0.96875-0.37109 1.0586-0.89844l0.078125-0.46875 0.12891 0.53906c0.12109 0.48828 0.55859 0.82812 1.0508 0.82812 0.078126 0 0.17188-0.011718 0.25-0.03125 0.57813-0.14062 0.94141-0.71094 0.80078-1.2891l-1.3008-5.4883 0.28125-2.1016h3.4219c0.12109 0 0.21094-0.070312 0.32812-0.070312l-0.26953 7.8711c-0.019531 0.58984 0.44141 1.0898 1.0391 1.1094h0.039062c0.57812 0 1.0508-0.46094 1.0703-1.0391l0.30859-8.6797c2.0703-1.4883 2.3711-4.5586 2.3906-4.7812v-5.0391c1.6406 0.10156 2.8906-0.23828 3.5898-1.1992 1.0586-1.4688 0.48047-3.6406 0.039063-4.7695 1.7305-1.9688 2.2188-5.2617 2.3516-7.2695 2.6445 0.46094 5.6367-1.9922 7.207-3.832zm-67.66 25.102c-0.25-0.46875-0.41016-0.94922-0.39062-1.3984 0.011719-0.30859 0.10938-0.78125 0.78906-1.2891 0.62109-0.46094 1.4102-0.69922 2.2305-0.69922 0.19141 0 0.37891 0.011719 0.57031 0.039063-1.3984 0.61719-2.6211 1.8789-3.1992 3.3477zm22.23-11.871c-1.7305 0-3.3086-1.0117-4.0391-2.5781-0.14063-0.30859-0.42969-0.53125-0.76172-0.60156-2.0508-0.42188-3.5391-2.25-3.5391-4.3594v-0.078125c0.71094-0.28906 1.4883-0.5 2.4219-0.57031 1.75-0.12109 3.4102-0.26953 5.1602-0.42969l1.7812-0.14844c1.9805 0.46875 3.4219 2.2695 3.4219 4.3203 0.003907 2.4453-1.9961 4.4453-4.4453 4.4453zm24.5-11.879c-1.0781 0.85938-2.7188 0.050781-4.0508-0.96875h4.5898c0.19922 0 0.39844-0.058594 0.55859-0.16016-0.019531 0.039062-0.050781 0.070312-0.070312 0.10938-0.10156 0.30859-0.050782 0.62891 0.10938 0.89062-0.37891-0.17969-0.81641-0.13281-1.1367 0.12891zm11.82-1.6094c0.011719 0.019531 0.019532 0.03125 0.03125 0.039063-0.26172-0.16016-0.58984-0.21875-0.89844-0.12109-0.39062 0.12891-3.7695 1.3398-3.7695 3.7695v5.1914c0 0.58984 0.48047 1.0781 1.0781 1.0781 0.58984 0 1.0703-0.48047 1.0703-1.0781v-5.1914c0-0.60938 1.3594-1.4102 2.3008-1.7305 0.039063-0.011718 0.070313-0.039062 0.10938-0.058594-0.10156 0.17188-0.16016 0.37109-0.16016 0.57813 0.03125 1.6289-0.28906 6.2188-2.2109 7.8008-0.39062 0.32031-0.5 0.85938-0.28125 1.3086 0.39844 0.80859 0.94922 2.6016 0.46094 3.2812-0.28125 0.39063-1.0703 0.53125-2.2188 0.33984-0.050781-0.011718-0.10156-0.011718-0.14844-0.011718l-1.1992 0.011718c-1.1484 0.17969-1.9297 0.050782-2.2188-0.33984-0.46875-0.64844 0-2.3398 0.46094-3.2812 0.21875-0.44922 0.10156-0.98828-0.28125-1.3086-1.9102-1.5781-2.2383-6.1602-2.2109-7.8008 0-0.21094-0.050781-0.41016-0.16016-0.57813 0.039062 0.019532 0.058593 0.050782 0.10938 0.058594 0.94141 0.32031 2.3008 1.1211 2.3008 1.7305v5.1914c0 0.58984 0.48047 1.0781 1.0781 1.0781 0.60156 0 1.0781-0.48047 1.0781-1.0781v-5.1914c0-2.4297-3.3789-3.6406-3.7695-3.7695-0.30859-0.10156-0.64062-0.039063-0.89844 0.12891 0.011719-0.019531 0.019532-0.03125 0.03125-0.050781 0.17188-0.39062 0.089844-0.85156-0.19922-1.1602-0.69141-0.75-1.1484-1.4492-1.4414-2.0898 0.30859 0.23828 0.66016 0.44141 1.0391 0.60938 1.0195 0.46875 2.4297 0.76172 3.3281 0.12891 0.35938-0.25 1.2305-0.51953 2.2109-0.69141 0.14062-0.03125 0.28125-0.03125 0.42188 0 0.98047 0.17188 1.8516 0.44922 2.2109 0.69141 0.89844 0.62891 2.3086 0.35156 3.3281-0.12891 0.37109-0.17188 0.71875-0.37109 1.0391-0.60938-0.28906 0.64062-0.75 1.3398-1.4414 2.0898-0.26953 0.3125-0.35156 0.77344-0.17969 1.1641zm1.5195 1.6094c-0.32031-0.26172-0.76172-0.30859-1.1406-0.14062 0.14844-0.26172 0.21094-0.57812 0.10938-0.89062-0.011719-0.039062-0.050782-0.070312-0.070313-0.10938 0.17188 0.10156 0.35938 0.16016 0.55859 0.16016h4.5898c-1.3164 1.0391-2.9688 1.8516-4.0469 0.98047z"/>
 </g>
</symbol>
</svg>