<svg xmlns="http://www.w3.org/2000/svg" version="1.1">
<symbol id="icon-tractor" viewBox="-5.0 -10.0 110.0 135.0">
 <g>
  <path d="m75.41 63.211c-3.6406 0-6.6094 2.9688-6.6094 6.6094 0 3.6406 2.9609 6.6094 6.6094 6.6094 3.6406 0 6.6094-2.9688 6.6094-6.6094 0-3.6406-2.9609-6.6094-6.6094-6.6094zm0 11.008c-2.4297 0-4.3984-1.9688-4.3984-4.3984 0-2.4297 1.9688-4.3984 4.3984-4.3984 2.4297 0 4.3984 1.9688 4.3984 4.3984 0 2.4297-1.9688 4.3984-4.3984 4.3984z"/>
  <path d="m26.352 72.84c5.0586 0 9.1719-4.1211 9.1719-9.1719 0-5.0586-4.1094-9.1797-9.1719-9.1797-5.0586 0-9.1719 4.1211-9.1719 9.1797 0 5.0508 4.1094 9.1719 9.1719 9.1719zm0-16.129c3.8398 0 6.9609 3.1211 6.9609 6.9609s-3.1211 6.9609-6.9609 6.9609c-3.8398 0-6.9609-3.1211-6.9609-6.9609 0-3.8438 3.1211-6.9609 6.9609-6.9609z"/>
  <path d="m83.859 50.719h-3.1094c-0.60938 0-1.1016 0.5-1.1016 1.1094s0.5 1.1094 1.1016 1.1094h3.1094c0.60938 0 1.1016-0.5 1.1016-1.1094 0-0.61719-0.49219-1.1094-1.1016-1.1094z"/>
  <path d="m74.52 50.719h-2.0703c-0.60938 0-1.1016 0.5-1.1016 1.1094s0.5 1.1094 1.1016 1.1094h2.0703c0.60938 0 1.1016-0.5 1.1016-1.1094 0.007812-0.61719-0.49219-1.1094-1.1016-1.1094z"/>
  <path d="m85.699 43.531h-6.8594v-9c0-1.2617 1.0195-2.2812 2.2812-2.2812 0.60938 0 1.1016-0.5 1.1016-1.1094s-0.48828-1.1094-1.1016-1.1094c-2.4805 0-4.4883 2.0195-4.4883 4.4883v9h-6.7344l-9.9414-18.879c2.2539-0.14062 4.043-2 4.043-4.2891 0-2.3984-1.9492-4.3398-4.3398-4.3398h-34.18c-2.3906 0-4.3398 1.9492-4.3398 4.3398 0 2.3906 1.9492 4.3398 4.3398 4.3398h1.7109l-1.1211 12.969c-3.75 0.050782-7.6211 0.96875-10.891 2.6016-1.6016 0.73047-3.1484 1.6914-4.4688 2.7812-0.46094 0.37109-0.53906 1.0508-0.17969 1.5195l2.7109 3.5781c-4.4219 3.7188-7.2422 9.3008-7.2422 15.52 0 7.9102 4.5508 14.762 11.16 18.121h-3.4688c-0.60938 0-1.1016 0.5-1.1016 1.1094s0.48828 1.1094 1.1016 1.1094h23.27c0.60937 0 1.1016-0.5 1.1016-1.1094s-0.5-1.1094-1.1016-1.1094h-1.4492c4.6211-2.3516 8.2188-6.4102 9.9805-11.352 0-0.011719 0.011718-0.011719 0.019531-0.019532 0.011719-0.011718 0-0.03125 0.011719-0.050781 0.73828-2.1016 1.1602-4.3516 1.1602-6.6992 0-3.7383-1.0312-7.2305-2.8008-10.25-0.011718-0.03125-0.011718-0.070312-0.03125-0.10156-0.019531-0.039063-0.058593-0.058594-0.089843-0.10156-3.5508-5.8984-9.9883-9.8711-17.359-9.8906h-0.011719-0.011719-0.03125c-4.1992 0-8.1016 1.2812-11.34 3.4609l-2.0391-2.6992c0.98047-0.69922 2.0703-1.3398 3.1797-1.8516 3.0898-1.5508 6.7383-2.3984 10.27-2.3984l0.66016-0.011719c12.719 0.37891 23.07 11.07 23.07 23.84 0 3.3398-0.69141 6.6406-1.9805 9.5508-0.30078 0.67188-0.67188 1.3398-1.0508 1.9414-0.21094 0.33984-0.21875 0.76953-0.03125 1.1211 0.19141 0.35156 0.55859 0.57031 0.96094 0.57031h15.121c1.1602 2.0117 2.8008 3.6992 4.7617 4.9414h-4.1719c-0.60937 0-1.1016 0.5-1.1016 1.1094s0.5 1.1094 1.1016 1.1094h11.051c0.10156 0 0.5-0.039062 0.60938-0.039062 5.2383 0 9.8086-2.8711 12.25-7.1094 3.4922-0.03125 6.332-2.8516 6.332-6.3125v-18.629c0-4.6211-3.7188-8.3789-8.3008-8.3789zm-60.43 2.0586v1.5781c0 0.60938 0.5 1.1094 1.1016 1.1094 0.60156 0 1.1016-0.5 1.1016-1.1094l-0.003906-1.5664c5.75 0.35938 10.781 3.3984 13.84 7.8906l-1.4688 0.83984c-0.53125 0.30078-0.71094 0.98047-0.41016 1.5117 0.19922 0.35938 0.57812 0.55859 0.96094 0.55859 0.19141 0 0.37109-0.050782 0.55078-0.14844l1.4883-0.85156c1.2812 2.4805 2.0117 5.2891 2.0117 8.2695 0 1.7109-0.25 3.3516-0.69922 4.9219l-1.7305-0.64844c-0.57031-0.21094-1.2109 0.078126-1.4219 0.64844-0.21094 0.57031 0.078125 1.2109 0.64844 1.4219l1.7891 0.67188c-1.7891 4.2617-5.1719 7.6797-9.3906 9.5508l-0.67969-1.9219c-0.19922-0.57812-0.82812-0.87891-1.4102-0.67188-0.57031 0.19922-0.87891 0.83984-0.67188 1.4102l0.71484 1.9453c-1.6719 0.51172-3.4297 0.78125-5.25 0.78125-2.9414 0-5.7188-0.71875-8.1797-1.9688l1.0586-1.8203c0.30859-0.53125 0.12891-1.1992-0.39844-1.5117-0.53125-0.32031-1.1992-0.12891-1.5117 0.39844l-1.0586 1.8281c-3.7812-2.5391-6.5391-6.4688-7.5781-11.051l1.8516-0.33984c0.60156-0.10938 1-0.69141 0.89062-1.2891-0.10937-0.60156-0.69141-0.98047-1.2812-0.89062l-1.832 0.33203c-0.058593-0.60156-0.089843-1.1992-0.089843-1.8086 0-4.1094 1.3906-7.8789 3.6992-10.922l1.3203 1.1016c0.21094 0.17188 0.46094 0.26172 0.71094 0.26172 0.32031 0 0.62891-0.12891 0.85156-0.39844 0.39062-0.46875 0.32812-1.1719-0.14062-1.5508l-1.3086-1.0898c3.0547-3.1641 7.2578-5.1914 11.926-5.4727zm0.21094-23.121c-1.1719 0-2.1289-0.94922-2.1289-2.1289 0-1.1797 0.96094-2.1289 2.1289-2.1289h34.18c1.1719 0 2.1289 0.94922 2.1289 2.1289 0 1.1719-0.96094 2.1289-2.1289 2.1289zm2.8008 15.25 1.1211-13.031h7.6484l0.30078 15.449c-2.793-1.3359-5.8516-2.1758-9.0703-2.418zm21 13.793c-2.25-4.1992-5.6211-7.7109-9.6914-10.172l-0.32031-16.648h18.211l9.4688 17.98-2.25 3.8086-4.4219-3.2812 1.1914-1.6289c0.35938-0.48828 0.25-1.1797-0.25-1.5391s-1.1914-0.23828-1.5391 0.25l-3.8281 5.2812c-0.35937 0.48828-0.25 1.1797 0.25 1.5391 0.19922 0.14063 0.42188 0.21094 0.64844 0.21094 0.33984 0 0.67969-0.16016 0.89844-0.46094l1.3516-1.8594 4.5898 3.4102-1.8398 3.1211-12.469-0.003907zm26.129 30.227c-6.5781 0-11.93-5.3516-11.93-11.922 0-6.5781 5.3516-11.93 11.93-11.93s11.93 5.3516 11.93 11.93c0 6.5742-5.3516 11.922-11.93 11.922zm16.379-11.199c0 1.8594-1.2695 3.4102-3.0391 3.9219 0.51172-1.4609 0.80078-3.0117 0.80078-4.6406 0-7.7891-6.3398-14.141-14.141-14.141-7.7891 0-14.129 6.3398-14.129 14.141 0 1.6914 0.30859 3.3086 0.85938 4.8203h-12.211c0.089843-0.17188 0.17187-0.35156 0.25-0.51953 1.4219-3.1914 2.1719-6.8008 2.1719-10.449 0-3.5117-0.71875-6.8711-2.0117-9.9492h12.031c0.39062 0 0.75-0.21094 0.94922-0.53906l4.8398-8.2109 0.10156 0.19141c0.19141 0.37109 0.57031 0.58984 0.98047 0.58984l16.457-0.003906c3.3594 0 6.0898 2.7695 6.0898 6.1719z"/>
 </g>
 </symbol>
</svg>
