
<svg xmlns="http://www.w3.org/2000/svg" version="1.1">
<symbol id="icon-cattle" viewBox="-5.0 -10.0 110.0 135.0">
 <g>
  <path d="m22.41 15.109c-0.92188 0-1.6719 0.75-1.6719 1.6719s0.75 1.6719 1.6719 1.6719 1.6719-0.75 1.6719-1.6719c-0.003906-0.92969-0.75391-1.6719-1.6719-1.6719z"/>
  <path d="m59.648 60.629c-0.5 0-0.91016 0.41016-0.91016 0.91016s0.41016 0.91016 0.91016 0.91016 0.91016-0.41016 0.91016-0.91016-0.39844-0.91016-0.91016-0.91016z"/>
  <path d="m35.738 40.969c-0.51953 0-0.94922 0.42969-0.94922 0.94922s0.42969 0.94922 0.94922 0.94922 0.94922-0.42969 0.94922-0.94922c0.003906-0.51953-0.41797-0.94922-0.94922-0.94922z"/>
  <path d="m92.898 72.199h-4.7188c-0.60156 0-1.1016 0.48828-1.1016 1.1016v0.92969h-1.9219c0.070312-0.12891 0.17188-0.25 0.19922-0.39844 0.16016-0.57812 0.058593-1.1992-0.28125-1.7188l-0.82812-1.2383c-0.26953-0.41016-0.21875-0.92969 0.12109-1.2617 0.98828-0.98828 1.5312-2.3008 1.5312-3.6992v-5.5586c0-0.03125-0.011719-0.10938-0.019532-0.19141 1.3984-0.30859 2.4492-1.5586 2.4492-3.0586v-1.6016c0-0.60938-0.48828-1.1016-1.1016-1.1016-0.60156 0-1.1016 0.48828-1.1016 1.1016v1.6016c0 0.46875-0.33984 0.85938-0.78906 0.92969l-0.5-0.67969c-1.4688-2.5117-4.1914-4.1602-7.2188-4.1602h-7.7617l0.14062-2.75c0.35156-0.51953 1.1914-1.7812 1.8789-2.8008 0.80859-1.25 1.2188-2.5898 1.2188-4v-0.10938c0.94141 0.67969 2.0586 1.0586 3.2383 1.0586 0.28906 0 0.57031-0.12109 0.78125-0.32031 0.21094-0.21094 0.32031-0.48828 0.32031-0.78125l0.007812-13.371c0-4.2812-3.4883-7.7695-7.7695-7.7695h-9.1289c-0.10156-0.011718-0.19922-0.019531-0.30078-0.019531h-15.801c-2.1094 0-4.1094-0.80859-5.5-2.2383l-12.59-12.613c-1.8398-1.8398-5.0117-2.0195-7-0.44922-0.32812 0.26172-0.48047 0.67188-0.39062 1.0781l0.60156 2.8984-5.3281 4.2383c-0.78906 0.62891-1.25 1.5703-1.25 2.5781v3.3984c0 1.8203 1.5 3.3008 3.3516 3.3008h4.4492c0.60938 0 1.1016 0.51172 1.1016 1.1484v6.75c0 1.1719 0.21875 2.3008 0.62109 3.3516l-1.9219 1.4297c-1.9688 1.4609-3.1406 3.7891-3.1406 6.2383v10.281c0 2.3086 1.8789 4.1992 4.1992 4.1992 1.3008 0 2.4297-0.92969 2.6914-2.1992l1.9609-9.8008-2.1484-0.42969-1.9609 9.8008c-0.050781 0.25-0.28125 0.42969-0.53906 0.42969-1.1094 0-2.0117-0.89844-2.0117-2l-0.007813-10.273c0-1.7617 0.83984-3.4297 2.25-4.4805l1.6602-1.2305c0.64844 0.92969 1.4609 1.7383 2.4297 2.3984 0.058594 0.039062 0.12891 0.070312 0.21094 0.10156 1.0703 0.73828 1.8789 1.8086 2.3984 3.0898-0.26953 0.67188-0.42969 1.3906-0.42969 2.1289 0 0.92188 0.48047 1.7305 1.1992 2.1992 0.32812 2.5 0.67969 5.2695 0.96094 7.4805l0.26172 2.0781c0.16016 1.6719 1.5703 2.9297 3.5508 2.9297 0.85156 0 1.7109-0.35938 2.3398-1 0.62109-0.62109 0.94922-1.4297 0.94922-2.3516v-1.4609c0.050782 0.039063 0.078125 0.089844 0.12891 0.12891 0.67188 0.55859 1.4219 0.98828 2.2305 1.2695 0.050781 0.019531 0.10156 0.039062 0.14844 0.058593 0.19141 0.058594 0.37891 0.12109 0.53125 0.17188l1.4805 10.031c0.078124 0.53906 0.53906 0.94141 1.0781 0.94141h1.7305c1.3281 0 2.4219-0.92969 2.6016-2.1719l1.1211-6.7383c0.46875 0.12109 1.0391 0.26172 1.6211 0.41016 1.0195 0.25 1.9414 0.39844 2.8008 0.44141l2.5 0.17969-2.6719 1.7812c-0.30859 0.19922-0.48828 0.53906-0.48828 0.91016v1.2617c0 0.92969 0.35938 1.8008 1.0195 2.4492 0.64844 0.66016 1.5312 1.0195 2.4609 1.0195h0.80078l0.39062 0.39063c0.94141 0.94141 2.1016 1.5703 3.3711 1.8594l-1.7891 4.4805h-3.9414v-0.94141c0-0.60938-0.48828-1.1016-1.1016-1.1016h-4.7188c-0.60156 0-1.1016 0.48828-1.1016 1.1016v0.94141l-34.703 0.003907v-0.92969c0-0.60938-0.48828-1.1016-1.1016-1.1016h-4.707c-0.60937 0-1.1016 0.48828-1.1016 1.1016v19.629c0 0.60938 0.48828 1.1016 1.1016 1.1016h4.7188c0.60156 0 1.1016-0.48828 1.1016-1.1016v-0.92969h34.672v0.94922c0 0.60937 0.48828 1.1016 1.1016 1.1016h4.7188c0.60938 0 1.1016-0.48828 1.1016-1.1016v-0.94922h32.602v0.92969c0 0.60938 0.48828 1.1016 1.1016 1.1016h4.7188c0.60938 0 1.1016-0.48828 1.1016-1.1016l-0.007812-19.621c-0.03125-0.59766-0.51953-1.0898-1.1328-1.0898zm-82.18 19.629h-2.5273v-17.438h2.5195v17.438zm36.859-2.0273h-34.668v-3.0117h34.672zm0-5.2109h-34.668v-2.9609h34.672zm0-5.1484h-34.668v-3.0117h34.672zm4.7227 12.398h-2.5312v-17.461h2.5312zm17.391-67.289c3.0781 0 5.5781 2.5 5.5781 5.5703v12.07c-0.46875-0.16016-0.91016-0.42969-1.2695-0.78906-0.62891-0.64062-0.98047-1.4805-0.98047-2.3789 0-0.60938-0.48828-1.0898-1.1016-1.0898-0.60938 0-1.1016 0.48828-1.1016 1.1016 0 0.87891 0.23047 1.7188 0.62109 2.4883-0.019531 0.011718-0.039062 0.011718-0.058594 0.019531 0 0-0.64844 0.48828-1.3008 1.0312-0.44922 0.37891-0.94141 0.69141-1.4883 0.94922v-8.0117c0-2.1602-0.53125-4.3906-1.5195-6.4297-0.39062-0.82031-0.82812-1.6914-1.25-2.5195l-0.58984-1.1602c-0.14844-0.30078-0.33984-0.57812-0.53906-0.85156zm-39.77 16.621c-0.69141-1.1484-1.5898-2.1406-2.6992-2.8594-0.050781-0.039062-0.12109-0.070312-0.19141-0.10156-1.8711-1.3281-2.9805-3.4805-2.9805-5.7891v-6.75c0-1.8516-1.4805-3.3516-3.2891-3.3516h-4.4492c-0.64062 0-1.1484-0.48828-1.1484-1.1016v-3.3984c0-0.33984 0.14844-0.64844 0.42188-0.87109l5.8594-4.6602c0.32031-0.26172 0.48047-0.67187 0.39063-1.0781l-0.57813-2.8203c1.1484-0.55078 2.6289-0.28906 3.5391 0.62109l3.5508 3.5508-1.5898 3.7695c-0.23047 0.55859 0.03125 1.1992 0.58984 1.4414 0.14062 0.058593 0.28125 0.089843 0.42188 0.089843 0.42969 0 0.82812-0.25 1.0117-0.67188l1.2383-2.9492 2.2188 2.2188-1.5781 3.7695c-0.23047 0.55859 0.03125 1.1992 0.58984 1.4414 0.14062 0.058594 0.28125 0.089844 0.42188 0.089844 0.42969 0 0.83984-0.25 1.0117-0.67188l1.2383-2.9492 2.0391 2.0391-1.5781 3.7695c-0.23047 0.55859 0.03125 1.1992 0.58984 1.4414 0.14062 0.058594 0.28125 0.089844 0.42188 0.089844 0.42969 0 0.83984-0.25 1.0117-0.67188l1.25-2.9688c1.7812 1.6992 4.2305 2.6914 6.8203 2.6914h15.699c0.039063 0 0.070313 0.019531 0.10938 0.019531h0.14844c1.1914 0.058594 2.3203 0.76953 2.8516 1.8281l0.58984 1.1719c0.41016 0.82031 0.83984 1.6719 1.2305 2.4688 0.85156 1.7617 1.3008 3.6484 1.3008 5.4805v8.0703c-1.7812-1.4297-4.1016-2.2617-6.6797-2.2617h-0.019531l-9.8086 0.98047c-2.0508 0.21094-4.0898-0.37109-5.5586-1.4805l-2.3398-2.6992c0.44922-1.5508 1.6992-2.7812 3.3008-3.1797l2.5312-0.62891c0.5-0.12891 0.83984-0.57812 0.82812-1.0898-0.011718-0.51172-0.37891-0.94922-0.87891-1.0508l-1.1484-0.23047c-4.2695-0.85938-8.5898 1.0586-10.828 4.7891h-0.46094c-1.3008 0-2.5391 0.62109-3.3203 1.6719zm5.2773 15.637c0 0.33984-0.10156 0.57812-0.30078 0.78906-0.21875 0.21875-0.53125 0.35938-1.0586 0.35938-0.57812 0-1.0508-0.39844-1.1094-0.96875l-0.26953-2.1094c-0.25-2.0117-0.55859-4.4805-0.87109-6.7812h1.2305c0.92969 0 1.7383 0.66016 1.9219 1.5703l0.33984 1.7109c0.03125 0.12891 0.078125 0.25 0.10938 0.37109v5.0586zm17.789 0.88281c-0.73047-0.039062-1.5391-0.17188-2.3984-0.37891-1.4297-0.37109-2.8008-0.69141-2.8008-0.69141-0.28906-0.070313-0.60156-0.019532-0.85937 0.16016-0.25 0.17188-0.42188 0.42969-0.46875 0.73047l-1.3086 7.9219c-0.03125 0.19141-0.19922 0.32031-0.42969 0.32031h-0.78125l-1.4297-9.7383c-0.058594-0.39062-0.30859-0.71094-0.67969-0.85938 0 0-0.48828-0.19922-1.1602-0.41016-0.03125-0.019532-0.070313-0.03125-0.10156-0.039063-0.60156-0.19922-1.1484-0.51172-1.6406-0.92188-0.87109-0.73828-1.4688-1.75-1.6914-2.8594l-0.33984-1.7109c-0.39063-1.9414-2.1016-3.3398-4.0703-3.3398h-2.0781c-0.23828 0-0.42969-0.19141-0.42969-0.42969 0-0.76172 0.23828-1.4805 0.69922-2.0898l2.75-3.6719c0.37109-0.48828 0.96094-0.78906 1.5703-0.78906h1.1016c0.39062 0 0.75-0.21094 0.94922-0.55078l0.21094-0.37109c0.96094-1.6914 2.4609-2.9219 4.1914-3.5703-1.0508 0.98828-1.7891 2.3008-2.0508 3.7891-0.058594 0.32031 0.03125 0.64844 0.25 0.89844l2.8281 3.2812c2.0781 1.6016 4.6602 2.3281 7.2891 2.0781l9.6992-0.96875c2.4219 0 4.6406 0.92188 6.0781 2.5312 0.21094 0.23047 0.73828 0.33984 1.0508 0.33984 0.32812-0.058593 0.64844-0.14062 0.82812-0.21875 1.1406-0.28906 2.1406-0.73828 3.0391-1.3711-0.14063 0.55859-0.37891 1.1094-0.71875 1.6289-0.89063 1.3086-2.0508 3.0508-2.0508 3.0508-0.10938 0.16016-0.17188 0.35156-0.17969 0.55078l-0.16016 3.1719c-0.89062 0.019532-2.3711 0.19922-2.3711 0.19922-0.42188 0.039063-1.5 0.17969-2.3984 0.67188-0.44141-0.57031-0.98828-1.0508-1.6094-1.4219-1.3594-0.82031-2.9688-1.0586-4.5312-0.67188-0.5 0.12109-0.94922 0.57812-0.94922 1.1016 0 1.6914 0.75 3.2812 2.0391 4.3281l-0.71094 0.60938zm5.4219 8.6367-0.69922-0.71094c-0.21094-0.21094-0.48828-0.32813-0.78125-0.32813h-1.2617c-0.35156 0-0.67188-0.12891-0.91016-0.37109-0.23828-0.23828-0.37891-0.55859-0.37891-0.89844v-0.67188l2.6211-1.7461c0.51172-0.33984 0.92188-0.80078 1.1992-1.3516l0.21875-0.44141 1.9492-1.6797c0.26172-0.21875 0.39844-0.55078 0.37891-0.89062-0.019532-0.33984-0.19922-0.66016-0.48828-0.85156l-0.71094-0.48047c-0.69922-0.46094-1.1914-1.1484-1.3984-1.9414 0.67187 0.011718 1.4102 0.16016 2.0312 0.53906 0.85156 0.5 1.4688 1.3398 1.7109 2.3203l0.011719 0.03125 1.0781-0.17188-1.0586 0.26953c0.14062 0.57031 0.71094 0.89844 1.2812 0.80859 0.57031-0.12109 0.96094-0.66016 0.87109-1.2383l-0.089844-0.57031c0.35156-0.17188 0.98828-0.33984 1.5586-0.39844 0.011719 0 1.5391-0.19141 2.3086-0.19141h9.7812c2.9414 0 5.4805 2.0898 6.0781 4.9609v5.5586c0 0.80859-0.32031 1.5703-0.89063 2.1484-1.0703 1.0703-1.2383 2.7617-0.39844 4.0312l0.5 0.73828 0.35938 0.39062-0.82031 0.41016-1.0312-0.69141c-1.1289-0.76172-2-1.8789-2.4297-3.1914l-0.42188-1.2695c-0.10156-0.30078-0.32812-0.55078-0.62109-0.66016-0.28906-0.12891-0.62891-0.10937-0.91016 0.03125l-1.3984 0.69922c-0.51953 0.26172-1.1016 0.39844-1.6797 0.39844h-4.0586c-0.39062 0-0.78125-0.089844-1.1406-0.26953l-1.6484-0.82813c-0.51172-0.26172-1.1406-0.078124-1.4297 0.42188l-2.9297 4.8789c-0.23828 0.39844-0.67969 0.64844-1.1406 0.64844h-0.64844l1.8281-4.5586c0.12891-0.33984 0.089844-0.71875-0.10938-1.0195-0.19922-0.30078-0.53906-0.48047-0.91016-0.48047-1.2695 0.007812-2.4727-0.48047-3.3711-1.3828zm20.039 6.793-0.23828 0.35938c0.058593-0.16016 0.078124-0.32031 0.12891-0.48047 0.03125 0.039062 0.070312 0.078125 0.10938 0.12109zm-9.5-2.1016c0.32031 0.070313 0.64062 0.10938 0.96094 0.10938h4.0586c0.85156 0 1.6992-0.21094 2.4688-0.55859v0.46094c0 0.76953-0.17969 1.5391-0.53125 2.2305l-0.48828 0.96875h-6.5195c0.51172-0.96875 0.57031-2.1602 0.050781-3.2109zm-2 2.2422-0.83984-1.4414 0.44141-0.73047 0.44922 0.89062c0.19141 0.41797 0.16016 0.89844-0.050781 1.2812zm-1.9805 0.95703h-0.30859l0.16016-0.26172zm22.121 15.582h-32.602v-3.0117h32.602zm0-5.2109h-32.602v-2.9609h32.602zm0-5.1484h-32.602v-3.0117h32.602zm4.7188 12.387h-2.5195v-17.438h2.5195z"/>
  <path d="m9.1602 62.57c0.16016 0.44141 0.57812 0.71875 1.0312 0.71875 0.12109 0 0.25-0.019531 0.37891-0.070312 0.57031-0.19922 0.85938-0.83984 0.66016-1.3984l-0.46875-1.2891c-0.21094-0.57031-0.83984-0.85938-1.3984-0.64844-0.57031 0.19922-0.85938 0.83984-0.66016 1.3984z"/>
  <path d="m10.719 33.648c0.14844 0.070312 0.30859 0.10156 0.46094 0.10156 0.41016 0 0.80859-0.23828 0.98828-0.62891l0.57812-1.2383c0.26172-0.55078 0.019531-1.1992-0.53125-1.4609-0.55078-0.26172-1.1992-0.019531-1.4609 0.53125l-0.57812 1.2383c-0.24609 0.54688-0.003906 1.1992 0.54297 1.457z"/>
  <path d="m87.949 44.16 1.3594 0.10938c0.03125 0.011719 0.058594 0.011719 0.089844 0.011719 0.55859 0 1.0391-0.42969 1.0898-1.0117 0.050781-0.60938-0.39844-1.1406-1-1.1797l-1.3594-0.10938c-0.60156-0.10938-1.1289 0.39844-1.1797 1-0.050781 0.59766 0.40234 1.1289 1 1.1797z"/>
  <path d="m83.461 36.859c0.14844 0.070313 0.30859 0.10156 0.46094 0.10156 0.41016 0 0.80859-0.23828 1-0.62891l0.57812-1.2383c0.26172-0.55078 0.019531-1.1992-0.53125-1.4609-0.55078-0.25-1.1992-0.019531-1.4609 0.53125l-0.57812 1.2383c-0.25781 0.54688-0.019532 1.207 0.53125 1.457z"/>
  <path d="m37.898 70.969c0.41016 0 0.80859-0.23828 1-0.64062l0.57812-1.2383c0.26172-0.55078 0.019532-1.1992-0.53125-1.4609-0.55078-0.25-1.1992-0.019531-1.4609 0.53906l-0.57812 1.2383c-0.25 0.55078-0.019531 1.1992 0.53125 1.4609 0.15234 0.074218 0.30078 0.10156 0.46094 0.10156z"/>
 </g>
 </symbol>
</svg>
