<svg xmlns="http://www.w3.org/2000/svg" version="1.1">
<symbol id="icon-field" viewBox="-5.0 -10.0 110.0 135.0">
 <g>
  <path d="m90.07 37.309c-0.19141-0.51953-0.71875-0.80859-1.2617-0.69922l-5.75 1.1992-7.4492-5.4492c-0.35938-0.26953-0.83984-0.28125-1.2188-0.050781l-7.2695 4.4297-2.5-1.7695-6.4688-7.2305c-0.35156-0.39062-0.92969-0.46875-1.3906-0.21094l-13.539 8.1016-7.5781-1.6797c-0.51953-0.10156-1.0508 0.16016-1.2617 0.66016l-5.1406 12.578-21.684 0.003906c-0.60938 0-1.1016 0.48828-1.1016 1.1016v44.578c0 0.60938 0.48828 1.1016 1.1016 1.1016l85.34-0.003906c0.60937 0 1.1016-0.48828 1.1016-1.1016v-44.586c0-0.13281-3.9297-10.973-3.9297-10.973zm-15.16-2.75 7.25 5.3086c0.25 0.19141 0.57031 0.26172 0.87891 0.19141l5.2891-1.1016 3 8.2305-13.328 0.003906-5.0898-6.2891c-0.058594-0.078125-0.12891-0.14062-0.21094-0.19922l-3.6211-2.5703zm16.891 42.332-11.262-8.7812h11.262zm-17.891 14.871-6.1484-12.562c-0.26172-0.55078-0.92188-0.76953-1.4688-0.5-0.53906 0.26953-0.76953 0.92969-0.5 1.4688l5.6797 11.59-13.422 0.003907-3.5195-23.648h5.3516l3.6289 7.4219c0.19141 0.39062 0.57812 0.62109 0.98828 0.62109 0.16016 0 0.32812-0.039062 0.48047-0.10938 0.55078-0.26953 0.76953-0.92969 0.5-1.4688l-3.1602-6.4492h4.0391l18.711 23.648-11.16-0.007813zm-41.52-8.3203c-0.55078-0.26953-1.2109-0.03125-1.4688 0.53125l-3.6797 7.8008-10.652-0.003907 17.961-23.648h3.8516l-5.6914 12.07c-0.26172 0.55078-0.019532 1.1992 0.51953 1.4609 0.14844 0.078125 0.30859 0.10938 0.46875 0.10938 0.41016 0 0.80859-0.23828 1-0.62891l6.1289-13h4.1719l-4.2812 23.648h-11.039l3.2383-6.8594c0.26172-0.57031 0.023437-1.2227-0.52734-1.4805zm-23.73-17.531v-8h19.531l-11.07 8zm12.551 2.1992-12.551 10.34v-10.34zm-0.33984-2.1992 11.07-8h17.891v8zm28.957-16.52v6.3281h-14.84l8.75-6.3281zm7.2422 0 8.7617 6.3281h-13.801v-6.3281zm-9.832 18.719h5.0586l3.5195 23.648-12.848 0.003907zm4.793-2.1992v-8h16.84l11.059 8zm31.668 0-11.059-8h19.16v8zm8.1016-10.199h-22.223l-8.7617-6.3281 30.984-0.003906zm-55.723-19.422 7.1016 1.5781c0.26953 0.050781 0.55859 0.019531 0.80078-0.12891l13.141-7.8594 6.0508 6.7188 8.1211 5.7812 3.8789 4.8008h-43.543zm3.9023 13.102-8.75 6.3281h-22.57v-6.3281zm-31.32 31.91 16.012-13.191h7.1211l-17.965 23.652h-5.168zm79.219 10.461-18.719-23.652h7.7891l14.852 11.57v12.078z"/>
  <path d="m11.949 24.691h14.328c3.7617 0 7.0586-3.5508 7.0586-7.5898 0-3.8984-3.1719-7.0703-7.0586-7.0703-0.53125 0-1.0391 0.050781-1.5312 0.16016-1.0117-2.4609-3.4414-4.1484-6.1602-4.1484-3.6719 0-6.6602 2.9883-6.6602 6.6602v0.03125c-3.2656 0.003906-5.9258 2.6758-5.9258 5.9648 0 3.3008 2.6719 5.9922 5.9492 5.9922zm0-9.7617 1.2109-0.019532c0.32031-0.011718 0.60938-0.14844 0.82031-0.39062 0.21094-0.23828 0.30078-0.55859 0.25-0.87109 0-0.011719-0.10156-0.62891-0.10156-0.94922 0-2.4609 2-4.4609 4.4609-4.4609 2.1016 0 3.9297 1.4883 4.3594 3.5312 0.070312 0.32031 0.26953 0.58984 0.55859 0.75 0.28906 0.16016 0.62891 0.17188 0.92969 0.050781 0.55078-0.23047 1.1719-0.33984 1.8398-0.33984 2.6797 0 4.8594 2.1914 4.8594 4.8711 0 2.8203-2.3203 5.3906-4.8594 5.3906l-14.328-0.003907c-2.0703 0-3.75-1.6992-3.75-3.7891 0-2.0781 1.6797-3.7695 3.75-3.7695z"/>
  <path d="m70.52 20.43h10.621c2.9414 0 5.5117-2.7617 5.5117-5.9102 0-3.0508-2.4688-5.5312-5.5117-5.5312-0.32812 0-0.64844 0.03125-0.96094 0.078125-0.83984-1.8086-2.6797-3.0312-4.7383-3.0312-2.7891 0-5.0703 2.2109-5.2109 4.9688-2.4492 0.14844-4.3984 2.1992-4.3984 4.6992-0.011719 2.6055 2.0977 4.7266 4.6875 4.7266zm0-7.2383 0.89844-0.011718c0.32031-0.011719 0.62109-0.14844 0.82031-0.39063 0.19922-0.23828 0.30078-0.55859 0.25-0.87891 0-0.011718-0.070312-0.42969-0.070312-0.66016 0-1.6719 1.3594-3.0195 3.0195-3.0195 1.4219 0 2.6602 1 2.9609 2.3906 0.070312 0.32031 0.26953 0.60156 0.55859 0.75 0.28906 0.16016 0.62891 0.17969 0.94141 0.039062 0.37109-0.16016 0.78906-0.23047 1.25-0.23047 1.8281 0 3.3086 1.4883 3.3086 3.3281 0 1.9414-1.5781 3.7109-3.3086 3.7109h-10.629c-1.3789 0-2.5-1.1289-2.5-2.5195 0-1.3789 1.1211-2.5078 2.5-2.5078z"/>
 </g>
</symbol>
</svg>